<?xml version="1.0" encoding="UTF-8"?>
<svg id="_图层_1" data-name=" 图层 1" xmlns="http://www.w3.org/2000/svg" viewBox="0 0 891.75 560">
  <defs>
    <style>
      .cls-1 {
        fill: #fff;
      }

      .cls-2 {
        fill: #2557d6;
      }
    </style>
  </defs>
  <g id="Page-1">
    <g id="amex">
      <rect id="Rectangle-1" class="cls-2" x=".02" width="891.72" height="560" rx="42.67" ry="42.67"/>
      <path id="Path" class="cls-1" d="M.02,262.98h42.84l9.65-23.2h21.62l9.63,23.2h84.28v-17.73l7.52,17.81h43.75l7.52-18.08v18h209.43l-.1-38.08h4.06c2.84.1,3.67.36,3.67,5.03v33.05h108.32v-8.86c8.74,4.66,22.33,8.86,40.21,8.86h45.57l9.75-23.2h21.62l9.54,23.2h87.81v-22.04l13.3,22.04h70.37V117.33h-69.64v17.2l-9.75-17.2h-71.46v17.2l-8.95-17.2h-96.53c-16.16,0-30.36,2.24-41.83,8.5v-8.5h-66.61v8.5c-7.3-6.45-17.25-8.5-28.31-8.5h-243.36l-16.33,37.62-16.76-37.62h-76.65v17.2l-8.42-17.2H30.4L.03,186.58v76.4h-.01ZM270.39,241.97h-25.7l-.1-81.79-36.35,81.79h-22.01l-36.45-81.86v81.86h-50.98l-9.63-23.3h-52.2l-9.73,23.3H0l44.89-104.43h37.24l42.64,98.88v-98.88h40.92l32.8,70.85,30.14-70.85h41.73v104.43h.03ZM80.61,197l-17.15-41.63-17.07,41.63h34.22ZM372.66,241.97h-83.74v-104.43h83.74v21.75h-58.68v18.83h57.27v21.41h-57.27v20.86h58.68v21.6h0ZM490.68,165.66c0,16.65-11.16,25.26-17.67,27.83,5.48,2.08,10.17,5.75,12.39,8.79,3.54,5.19,4.15,9.83,4.15,19.16v20.52h-25.28l-.1-13.18c0-6.29.6-15.33-3.96-20.34-3.67-3.68-9.25-4.47-18.27-4.47h-26.91v37.99h-25.07v-104.43h57.66c12.81,0,22.25.33,30.35,5,7.93,4.67,12.68,11.48,12.68,23.13h.01ZM458.99,181.16c-3.44,2.08-7.52,2.15-12.39,2.15h-30.45v-23.2h30.86c4.37,0,8.93.2,11.88,1.88,3.25,1.52,5.26,4.76,5.26,9.23s-1.92,8.24-5.16,9.93ZM530.89,241.97h-25.58v-104.43h25.58v104.43ZM827.81,241.97h-35.52l-47.52-78.38v78.38h-51.05l-9.75-23.3h-52.08l-9.46,23.3h-29.34c-12.18,0-27.61-2.69-36.35-11.55-8.81-8.87-13.4-20.88-13.4-39.87,0-15.49,2.74-29.65,13.51-40.84,8.1-8.34,20.8-12.18,38.07-12.18h24.27v22.38h-23.76c-9.15,0-14.31,1.36-19.29,6.19-4.27,4.4-7.2,12.71-7.2,23.65s2.23,19.26,6.89,24.52c3.86,4.14,10.87,5.38,17.47,5.38h11.26l35.33-82.13h37.56l42.45,98.78v-98.78h38.17l44.06,72.73v-72.73h25.68v104.43h.02ZM675.43,197l-17.34-41.63-17.25,41.63h34.6Z"/>
      <path id="path13" class="cls-1" d="M891.69,408.72c-6.09,8.87-17.96,13.36-34.02,13.36h-48.41v-22.4h48.22c4.78,0,8.13-.62,10.14-2.59,1.75-1.62,2.96-3.97,2.96-6.81,0-3.04-1.21-5.46-3.07-6.91-1.82-1.59-4.47-2.32-8.83-2.32-23.54-.79-52.9.72-52.9-32.34,0-15.15,9.66-31.1,35.97-31.1h49.94v-20.79h-46.39c-14,0-24.17,3.34-31.38,8.53v-8.53h-68.62c-10.97,0-23.85,2.71-29.95,8.53v-8.53h-122.54v8.53c-9.75-7.01-26.21-8.53-33.81-8.53h-80.83v8.53c-7.71-7.45-24.87-8.53-35.33-8.53h-90.46l-20.7,22.3-19.38-22.3h-135.13v145.75h132.59l21.33-22.66,20.1,22.66,81.73.07v-34.29h8.04c10.85.17,23.63-.27,34.92-5.13v39.34h67.41v-37.99h3.25c4.15,0,4.56.17,4.56,4.3v33.68h204.78c13,0,26.6-3.31,34.12-9.33v9.33h64.95c13.52,0,26.72-1.88,36.76-6.72v-27.15h0l-.02.02ZM485.65,352.66c0,29.01-21.75,35.01-43.65,35.01h-31.28v35.03h-48.72l-30.86-34.58-32.08,34.58h-99.29v-104.46h100.82l30.84,34.24,31.89-34.24h80.1c19.9,0,42.25,5.48,42.25,34.41h-.01ZM286.35,400.74h-61.63v-20.79h55.03v-21.31h-55.03v-18.99h62.84l27.42,30.44-28.64,30.64h0ZM385.67,412.7l-38.49-42.55,38.49-41.2v83.74h0ZM442.58,366.25h-32.39v-26.61h32.68c9.05,0,15.34,3.68,15.34,12.81s-6,13.8-15.63,13.8h0ZM612.3,318.24h83.67v21.6h-58.7v18.99h57.27v21.31h-57.27v20.79l58.7.09v21.68h-83.67v-104.46ZM580.14,374.17c5.58,2.05,10.14,5.73,12.28,8.77,3.54,5.11,4.06,9.86,4.16,19.07v20.71h-25.17v-13.07c0-6.29.6-15.59-4.06-20.44-3.67-3.75-9.25-4.64-18.39-4.64h-26.79v38.15h-25.19v-104.46h57.87c12.7,0,21.94.56,30.16,4.93,7.91,4.76,12.89,11.28,12.89,23.2,0,16.68-11.17,25.18-17.77,27.79h0ZM565.96,360.96c-3.36,1.98-7.5,2.15-12.37,2.15h-30.45v-23.46h30.86c4.46,0,8.93.09,11.96,1.88,3.24,1.69,5.19,4.93,5.19,9.4s-1.94,8.07-5.19,10.03ZM792.27,367.61c4.88,5.03,7.5,11.38,7.5,22.14,0,22.47-14.1,32.96-39.38,32.96h-48.82v-22.4h48.63c4.76,0,8.13-.62,10.24-2.59,1.73-1.62,2.96-3.97,2.96-6.81,0-3.04-1.34-5.46-3.05-6.91-1.92-1.59-4.56-2.32-8.93-2.32-23.44-.79-52.8.72-52.8-32.34,0-15.15,9.56-31.1,35.84-31.1h50.26v22.24h-45.99c-4.56,0-7.52.17-10.04,1.88-2.74,1.69-3.77,4.2-3.77,7.51,0,3.95,2.33,6.62,5.48,7.78,2.64.91,5.48,1.18,9.75,1.18l13.5.36c13.61.33,22.95,2.68,28.62,8.4h-.01ZM891.74,339.64h-45.69c-4.56,0-7.59.17-10.14,1.88-2.64,1.69-3.67,4.2-3.67,7.51,0,3.95,2.23,6.62,5.48,7.78,2.64.91,5.48,1.18,9.66,1.18l13.59.37c13.71.33,22.86,2.69,28.45,8.4,1.01.79,1.63,1.69,2.33,2.59v-29.73h-.01Z"/>
    </g>
  </g>
</svg>