<?xml version="1.0" encoding="UTF-8"?>
<svg id="_图层_1" data-name=" 图层 1" xmlns="http://www.w3.org/2000/svg" viewBox="0 0 875.19 560">
  <defs>
    <style>
      .cls-1 {
        fill: #fff;
      }
    </style>
  </defs>
  <path d="M796.94,0H61.86c-5.28,0-11.1.53-16.39,1.59-5.28,1.06-10.58,2.65-15.86,5.28-4.76,2.11-9.52,5.82-13.22,9.52s-7.41,8.46-9.52,13.22c-2.65,4.76-4.23,10.04-5.28,15.86-1.06,5.28-1.06,11.1-1.59,16.39v436.29c0,5.28.53,11.1,1.59,16.39,1.06,5.28,2.65,10.58,5.28,15.86,2.65,4.76,5.82,9.52,9.52,13.22s8.46,7.41,13.22,9.52c4.76,2.65,10.04,4.23,15.86,5.28,5.28,1.06,11.1,1.06,16.39,1.59h751.48c5.28,0,11.1-.53,16.39-1.59,5.28-1.06,10.58-2.65,15.86-5.28,4.76-2.65,9.52-5.82,13.22-9.52s7.41-8.46,9.52-13.22c2.65-4.76,4.23-10.04,5.28-15.86,1.06-5.28,1.06-11.1,1.59-16.39V61.88c0-5.28-.53-11.1-1.59-16.39s-2.65-10.58-5.28-15.86c-2.65-4.76-5.82-9.52-9.52-13.22s-8.46-7.41-13.22-9.52c-4.76-2.65-10.04-4.23-15.86-5.28-5.28-1.06-11.1-1.06-16.39-1.59h-16.39v-.02Z"/>
  <path class="cls-1" d="M796.94,18.51h16.39c4.23,0,8.99.53,13.75,1.06,4.23.53,7.41,1.59,10.58,3.17s5.82,3.7,8.46,6.35,4.76,5.28,6.35,8.46,2.65,6.35,3.17,10.58c1.06,4.76,1.06,9.52,1.06,13.75v436.29c0,4.23-.53,8.99-1.06,13.75-.53,3.7-1.59,7.41-3.17,10.58s-3.7,5.82-6.35,8.46-5.28,4.76-8.46,6.35c-3.17,1.59-6.35,2.65-10.58,3.17-4.76,1.06-9.52,1.06-13.75,1.06H61.86c-3.7,0-8.99-.53-13.75-1.06-3.7-.53-7.41-1.59-10.58-3.7-3.17-1.59-5.82-3.7-8.46-6.35s-4.76-5.28-6.35-8.46-2.65-6.35-3.17-10.58c-1.06-4.76-1.06-9.52-1.06-13.75V61.88c0-4.23.53-8.99,1.06-13.75.53-3.7,1.59-7.41,3.17-10.58,1.59-3.17,3.7-5.82,6.35-8.46s5.28-4.76,8.46-6.35,6.35-2.65,10.58-3.17c4.76-1.06,9.52-1.06,13.75-1.06h735.08"/>
  <path d="M239.02,188.27c7.41-9.52,12.69-22.21,11.1-34.9-11.1.53-24.33,7.41-32.26,16.39-6.87,7.93-13.22,21.16-11.63,33.31,12.69,1.59,24.86-5.28,32.79-14.8M250.13,206.25c-17.99-1.06-33.31,10.04-41.78,10.04s-21.68-9.52-35.96-9.52c-18.51.53-35.44,10.58-44.95,27.5-19.04,33.31-5.28,82.5,13.75,109.47,8.99,13.22,20.1,28.03,34.37,27.5,13.75-.53,19.04-8.99,35.44-8.99s21.16,8.99,35.96,8.46c14.8-.54,24.33-13.22,33.31-26.97,10.58-15.34,14.8-30.14,14.8-30.68-.53-.53-29.09-11.1-29.09-43.89-.53-27.5,22.21-40.72,23.27-41.24-12.17-19.04-32.26-21.16-39.13-21.68"/>
  <path d="M405.6,168.7c39.13,0,66.1,26.97,66.1,65.58s-27.5,66.1-67.16,66.1h-42.83v68.22h-31.2v-199.9h75.09ZM361.71,274.47h35.44c26.97,0,42.31-14.8,42.31-39.66s-15.34-39.66-42.31-39.66h-35.96v79.33h.53,0ZM479.64,327.88c0-25.38,19.57-41.24,54.47-43.37l40.19-2.11v-11.1c0-16.39-11.1-25.92-29.09-25.92s-28.03,8.46-30.68,21.16h-28.55c1.59-26.44,24.33-46,60.29-46s58.17,18.51,58.17,48.13v100.48h-28.55v-23.8h-.53c-8.46,16.39-26.97,26.44-46,26.44-29.62,0-49.71-17.99-49.71-43.89h-.01ZM574.3,314.66v-11.63l-35.96,2.11c-17.99,1.06-28.03,8.99-28.03,21.68s10.58,21.16,26.44,21.16c21.16,0,37.55-14.28,37.55-33.31h0ZM630.88,423.07v-24.33c2.11.53,7.41.53,9.52.53,13.75,0,21.16-5.82,25.92-20.62,0-.53,2.65-8.99,2.65-8.99l-52.89-145.95h32.26l37.02,118.99h.53l37.02-118.99h31.73l-54.47,153.89c-12.69,35.44-26.97,46.54-57.12,46.54-2.11-.53-9.52-.53-12.17-1.06h0Z"/>
</svg>