<?xml version="1.0" encoding="UTF-8"?>
<svg id="_图层_1" data-name=" 图层 1" xmlns="http://www.w3.org/2000/svg" viewBox="0 0 813.72 557.91">
  <defs>
    <style>
      .cls-1 {
        fill: #4285f4;
      }

      .cls-2 {
        fill: #3c4043;
        fill-rule: evenodd;
      }

      .cls-3 {
        fill: #34a853;
      }

      .cls-4 {
        fill: #fbbc04;
      }

      .cls-5 {
        fill: #ea4335;
      }

      .cls-6 {
        fill: #fff;
        stroke: #d9d9d9;
        stroke-miterlimit: 45.71;
        stroke-width: 11.43px;
      }
    </style>
  </defs>
  <rect class="cls-6" x="5.72" y="5.72" width="802.29" height="546.48" rx="62.86" ry="62.86"/>
  <path class="cls-2" d="M382.12,353.07v-77.07h39.78c16.29,0,30.06-5.46,41.27-16.23l2.69-2.73c20.49-22.3,19.14-57.05-2.69-77.68-10.92-10.93-25.87-16.84-41.27-16.54h-63.86v190.25h24.08,0ZM382.12,252.62v-66.45h40.38c8.68,0,16.9,3.34,23.04,9.41,13.01,12.75,13.32,33.99.75,47.19-6.13,6.53-14.81,10.17-23.79,9.86h-40.38ZM578.18,233.06c-10.31-9.56-24.38-14.41-42.17-14.41-22.89,0-40.08,8.49-51.44,25.33l21.24,13.51c7.78-11.53,18.4-17.29,31.86-17.29,8.52,0,16.74,3.18,23.18,8.95,6.29,5.46,9.86,13.35,9.86,21.7v5.62c-9.27-5.16-20.94-7.89-35.29-7.89-16.75,0-30.2,3.94-40.23,11.99-10.03,8.04-15.11,18.66-15.11,32.17-.3,12.29,4.94,23.97,14.21,31.86,9.42,8.49,21.38,12.75,35.44,12.75,16.6,0,29.75-7.44,39.78-22.3h1.05v18.06h23.03v-80.26c0-16.84-5.09-30.19-15.4-39.75v-.02h0ZM512.82,329.1c-4.94-3.64-7.92-9.56-7.92-15.93,0-7.13,3.29-13.04,9.72-17.75,6.58-4.7,14.81-7.13,24.53-7.13,13.46-.15,23.93,2.87,31.41,8.95,0,10.31-4.04,19.27-11.97,26.86-7.18,7.27-16.9,11.38-27.07,11.38-6.73.15-13.32-2.12-18.69-6.37h-.01ZM645.32,410.27l80.45-187.38h-26.18l-37.24,93.46h-.45l-38.12-93.46h-26.18l52.78,121.83-29.92,65.54h24.85Z"/>
  <path class="cls-1" d="M298.99,259.32c0-7.44-.6-14.87-1.8-22.16h-101.54v42.02h58.18c-2.39,13.51-10.17,25.64-21.54,33.23v27.32h34.69c20.34-18.97,32-47.03,32-80.41h0Z"/>
  <path class="cls-3" d="M195.67,366.12c29.01,0,53.53-9.71,71.33-26.4l-34.69-27.32c-9.72,6.67-22.13,10.47-36.64,10.47-28.12,0-51.89-19.27-60.42-45.06h-35.74v28.22c18.25,36.86,55.48,60.09,96.16,60.09h0Z"/>
  <path class="cls-4" d="M135.25,277.82c-4.49-13.51-4.49-28.22,0-41.88v-28.08h-35.75c-15.4,30.8-15.4,67.22,0,98.02l35.75-28.08h0Z"/>
  <path class="cls-5" d="M195.67,190.88c15.4-.3,30.2,5.62,41.27,16.39l30.81-31.26c-19.59-18.51-45.32-28.68-72.08-28.37-40.67,0-77.91,23.36-96.16,60.23l35.74,28.22c8.52-25.94,32.3-45.21,60.42-45.21h0Z"/>
</svg>