<?xml version="1.0" encoding="UTF-8"?>
<svg id="_图层_1" data-name=" 图层 1" xmlns="http://www.w3.org/2000/svg" xmlns:xlink="http://www.w3.org/1999/xlink" viewBox="0 0 815.43 559.08">
  <defs>
    <style>
      .cls-1 {
        fill: url(#_未命名的渐变_3);
      }

      .cls-2 {
        fill: url(#_未命名的渐变_9);
      }

      .cls-3, .cls-4 {
        fill: #fff;
      }

      .cls-4 {
        stroke: #d9d9d9;
        stroke-miterlimit: 45.71;
        stroke-width: 11.43px;
      }

      .cls-5 {
        fill: url(#_未命名的渐变_10);
      }
    </style>
    <linearGradient id="_未命名的渐变_10" data-name="未命名的渐变 10" x1="951.66" y1="194.08" x2="952.75" y2="194.08" gradientTransform="translate(-134378.18 67151.14) scale(141.73 -344.56)" gradientUnits="userSpaceOnUse">
      <stop offset="0" stop-color="#007b40"/>
      <stop offset="1" stop-color="#55b330"/>
    </linearGradient>
    <linearGradient id="_未命名的渐变_9" data-name="未命名的渐变 9" x1="951.49" y1="194.07" x2="952.56" y2="194.07" gradientTransform="translate(-135263.5 67147.51) scale(142.33 -344.55)" gradientUnits="userSpaceOnUse">
      <stop offset="0" stop-color="#1d2970"/>
      <stop offset="1" stop-color="#006dba"/>
    </linearGradient>
    <linearGradient id="_未命名的渐变_3" data-name="未命名的渐变 3" x1="951.57" y1="194.07" x2="952.65" y2="194.07" gradientTransform="translate(-134622.62 67149.95) scale(141.82 -344.56)" gradientUnits="userSpaceOnUse">
      <stop offset="0" stop-color="#6e2b2f"/>
      <stop offset="1" stop-color="#e30138"/>
    </linearGradient>
  </defs>
  <rect class="cls-4" x="5.72" y="5.72" width="804" height="547.65" rx="62.86" ry="62.86"/>
  <g>
    <path id="path3494" class="cls-3" d="M688.71,408.61c0,48.27-39.13,87.41-87.41,87.41H126.72V150.49c0-48.28,39.13-87.43,87.42-87.43h474.57v345.55h0Z"/>
    <path id="path3496" class="cls-5" d="M534,287.14c13.56.29,27.19-.6,40.69.47,13.67,2.56,16.96,23.25,4.82,30.03-8.29,4.47-18.14,1.66-27.12,2.45h-18.39v-32.94h0ZM582.52,249.85c3.01,10.62-7.23,20.17-17.48,18.72h-31.05c.22-10.03-.42-20.9.32-30.41,12.44.35,24.99-.72,37.37.55,5.32,1.34,9.75,5.7,10.85,11.14h-.01ZM657.25,92.2c.58,20.3.09,41.67.25,62.39-.04,84.22.08,168.42-.07,252.64-.54,31.56-28.51,58.99-59.86,59.62-31.37.13-62.75.02-94.12.05v-127.31c34.19-.17,68.39.36,102.56-.27,15.86-1,33.21-11.45,33.95-28.89,1.87-17.52-14.65-29.63-30.34-31.55-6.02-.15-5.85-1.76,0-2.46,14.95-3.23,26.71-18.72,22.3-34.22-3.75-16.31-21.77-22.62-36.77-22.59-30.57-.21-61.14-.03-91.71-.09.2-23.76-.41-47.56.33-71.31,2.43-30.99,31.09-56.55,62-56h91.47Z"/>
    <path id="path3498" class="cls-2" d="M158.01,151.42c.78-31.5,28.87-58.71,60.17-59.17,31.25-.1,62.52-.01,93.77-.04-.09,105.42.17,210.85-.13,316.28-1.21,31.12-28.98,57.81-59.94,58.36-31.32.11-62.63.01-93.95.04v-131.61c30.42,7.19,62.31,10.24,93.35,5.48,18.55-2.99,38.85-12.09,45.12-31.34,4.62-16.46,2.02-33.79,2.71-50.68v-39.24h-53.7c-.24,25.95.49,51.95-.39,77.86-1.45,15.93-17.23,26.06-32.26,25.51-18.63.2-55.56-13.51-55.56-13.51-.1-48.62.54-109.51.8-157.97h0v.02Z"/>
    <path id="path3500" class="cls-1" d="M331.99,235.34c-2.83.6-.57-9.62-1.29-13.51.2-24.53-.4-49.09.33-73.61,2.41-31.12,31.31-56.75,62.34-56.02h91.37c-.09,105.42.16,210.85-.13,316.28-1.21,31.12-28.99,57.81-59.95,58.36-31.32.12-62.64.02-93.96.04v-144.19c21.39,17.55,50.46,20.28,77.1,20.33,20.09,0,40.06-3.1,59.57-7.73v-26.42c-21.99,10.96-47.83,17.92-72.2,11.63-17-4.23-29.34-20.66-29.07-38.2-1.97-18.25,8.72-37.51,26.65-42.93,22.26-6.97,46.52-1.64,67.39,7.42,4.47,2.34,9,5.24,7.22-2.23v-20.76c-34.9-8.31-72.04-11.35-107.11-2.33-10.15,2.86-20.03,7.21-28.27,13.87h0v.02Z"/>
  </g>
</svg>