<?xml version="1.0" encoding="UTF-8"?>
<svg id="_图层_1" data-name=" 图层 1" xmlns="http://www.w3.org/2000/svg" viewBox="0 0 815.57 559.18">
  <defs>
    <style>
      .cls-1 {
        fill: #f9a000;
      }

      .cls-1, .cls-2, .cls-3 {
        fill-rule: evenodd;
      }

      .cls-4 {
        fill: #fff;
        stroke: #d9d9d9;
        stroke-miterlimit: 45.71;
        stroke-width: 11.43px;
      }

      .cls-2 {
        fill: #ed0006;
      }

      .cls-3 {
        fill: #ff5e00;
      }
    </style>
  </defs>
  <rect class="cls-4" x="5.72" y="5.72" width="804.14" height="547.75" rx="62.86" ry="62.86"/>
  <path class="cls-2" d="M412.39,405.01c-27.78,23.96-63.81,38.43-103.17,38.43-87.84,0-159.05-72.03-159.05-160.9s71.21-160.9,159.05-160.9c39.36,0,75.39,14.47,103.17,38.43,27.78-23.96,63.81-38.43,103.17-38.43,87.84,0,159.05,72.03,159.05,160.9s-71.21,160.9-159.05,160.9c-39.37,0-75.39-14.47-103.17-38.43h0Z"/>
  <path class="cls-1" d="M412.39,405.01c34.2-29.51,55.88-73.42,55.88-122.46s-21.69-92.95-55.88-122.46c27.78-23.96,63.81-38.43,103.17-38.43,87.84,0,159.05,72.03,159.05,160.9s-71.21,160.9-159.05,160.9c-39.37,0-75.39-14.47-103.17-38.43h0Z"/>
  <path class="cls-3" d="M412.39,160.08c34.2,29.51,55.88,73.42,55.88,122.46s-21.69,92.95-55.88,122.46c-34.19-29.51-55.88-73.42-55.88-122.46s21.69-92.95,55.88-122.46Z"/>
</svg>