<?xml version="1.0" encoding="UTF-8"?>
<svg id="_图层_1" data-name=" 图层 1" xmlns="http://www.w3.org/2000/svg" viewBox="0 0 816.78 560">
  <defs>
    <style>
      .cls-1 {
        fill: #009cde;
      }

      .cls-2 {
        fill: #003087;
      }

      .cls-3 {
        fill: #fff;
        stroke: #d9d9d9;
        stroke-miterlimit: 45.71;
        stroke-width: 11.43px;
      }
    </style>
  </defs>
  <rect class="cls-3" x="5.72" y="5.72" width="805.35" height="548.57" rx="62.86" ry="62.86"/>
  <g>
    <path class="cls-2" d="M176.33,195.53c-8.79-6.05-20.28-9.08-34.44-9.08h-54.83c-4.34,0-6.74,2.18-7.2,6.51l-22.27,139.82c-.23,1.37.11,2.62,1.03,3.77.91,1.14,2.05,1.72,3.42,1.72h26.04c4.57,0,7.08-2.17,7.54-6.51l6.17-37.7c.22-1.83,1.03-3.31,2.4-4.45,1.37-1.14,3.08-1.89,5.14-2.23s3.99-.51,5.82-.51,3.99.11,6.52.35c2.51.22,4.12.34,4.8.34,19.65,0,35.07-5.54,46.26-16.62,11.19-11.08,16.79-26.44,16.79-46.09,0-13.48-4.4-23.24-13.19-29.3v-.02ZM148.06,237.5c-1.14,8-4.12,13.25-8.91,15.76-4.8,2.51-11.65,3.77-20.56,3.77l-11.31.35,5.83-36.66c.46-2.51,1.94-3.77,4.45-3.77h6.52c9.13,0,15.76,1.32,19.87,3.94,4.11,2.62,5.48,8.17,4.11,16.63h-.01Z"/>
    <path class="cls-1" d="M754.97,186.44h-25.36c-2.52,0-4,1.26-4.45,3.77l-22.27,142.56-.35.68c0,1.14.46,2.23,1.37,3.26s2.05,1.54,3.42,1.54h22.62c4.33,0,6.73-2.17,7.2-6.51l22.27-140.16v-.34c0-3.2-1.49-4.8-4.46-4.8h.01Z"/>
    <path class="cls-2" d="M448.6,241.62c0-1.14-.46-2.23-1.37-3.26-.92-1.03-1.95-1.54-3.08-1.54h-26.39c-2.52,0-4.58,1.14-6.17,3.42l-36.33,53.46-15.07-51.4c-1.14-3.66-3.66-5.48-7.54-5.48h-25.71c-1.14,0-2.18.51-3.08,1.54-.92,1.03-1.37,2.11-1.37,3.26,0,.46,2.23,7.2,6.68,20.22,4.45,13.02,9.25,27.07,14.39,42.16,5.14,15.07,7.82,23.08,8.06,23.99-18.73,25.59-28.1,39.3-28.1,41.13,0,2.97,1.48,4.45,4.45,4.45h26.39c2.51,0,4.57-1.14,6.17-3.42l87.39-126.12c.46-.45.68-1.25.68-2.4h-.01Z"/>
    <path class="cls-1" d="M694.31,236.82h-26.04c-3.2,0-5.14,3.77-5.82,11.31-5.94-9.13-16.79-13.71-32.56-13.71s-30.44,6.17-41.97,18.51c-11.54,12.34-17.3,26.85-17.3,43.53,0,13.48,3.94,24.21,11.82,32.21,7.88,8,18.44,11.99,31.7,11.99,6.63,0,13.36-1.37,20.21-4.12,6.85-2.74,12.21-6.39,16.11-10.97,0,.22-.23,1.26-.68,3.08-.46,1.83-.68,3.21-.68,4.12,0,3.66,1.48,5.48,4.45,5.48h23.64c4.33,0,6.85-2.17,7.54-6.51l14.05-89.44c.22-1.37-.11-2.62-1.03-3.77s-2.05-1.72-3.43-1.72h.01ZM649.59,304.33c-5.82,5.71-12.85,8.57-21.08,8.57-6.63,0-11.99-1.83-16.11-5.48-4.12-3.65-6.17-8.68-6.17-15.07,0-8.45,2.86-15.59,8.57-21.42s12.8-8.74,21.25-8.74c6.39,0,11.7,1.89,15.93,5.66,4.23,3.77,6.34,8.97,6.34,15.59,0,8.22-2.91,15.2-8.74,20.91h0Z"/>
    <path class="cls-2" d="M305.02,236.82h-26.04c-3.21,0-5.14,3.77-5.83,11.31-6.17-9.13-17.02-13.71-32.56-13.71-16.45,0-30.44,6.17-41.98,18.51-11.54,12.34-17.3,26.85-17.3,43.53,0,13.48,3.94,24.21,11.83,32.21,7.88,8,18.44,11.99,31.7,11.99,6.39,0,13.02-1.37,19.87-4.12,6.85-2.74,12.34-6.39,16.45-10.97-.92,2.74-1.37,5.14-1.37,7.2,0,3.66,1.48,5.48,4.45,5.48h23.64c4.34,0,6.85-2.17,7.54-6.51l14.05-89.44c.22-1.37-.11-2.62-1.03-3.77-.92-1.14-2.05-1.72-3.42-1.72h0ZM260.3,304.5c-5.83,5.61-12.97,8.39-21.42,8.39-6.63,0-11.94-1.83-15.93-5.48-4-3.65-5.99-8.68-5.99-15.07,0-8.45,2.85-15.59,8.57-21.42,5.71-5.82,12.79-8.74,21.24-8.74,6.39,0,11.7,1.89,15.93,5.66s6.34,8.97,6.34,15.59c0,8.46-2.91,15.48-8.74,21.07Z"/>
    <path class="cls-1" d="M565.63,195.53c-8.79-6.05-20.27-9.08-34.44-9.08h-54.49c-4.58,0-7.09,2.18-7.54,6.51l-22.27,139.82c-.23,1.37.11,2.62,1.03,3.77.91,1.14,2.05,1.72,3.42,1.72h28.1c2.74,0,4.57-1.48,5.48-4.45l6.17-39.75c.22-1.83,1.03-3.31,2.4-4.45,1.37-1.14,3.08-1.89,5.14-2.23s3.99-.51,5.82-.51,3.99.11,6.51.35c2.51.22,4.12.34,4.8.34,19.65,0,35.07-5.54,46.26-16.62,11.19-11.08,16.79-26.44,16.79-46.09,0-13.48-4.4-23.24-13.19-29.3v-.02ZM530.51,251.9c-5.02,3.42-12.56,5.14-22.62,5.14l-10.97.35,5.83-36.66c.45-2.51,1.94-3.77,4.45-3.77h6.17c5.02,0,9.02.22,12,.68,2.96.46,5.82,1.89,8.57,4.28,2.75,2.4,4.12,5.88,4.12,10.45,0,9.6-2.51,16.11-7.54,19.54h-.01Z"/>
  </g>
</svg>