<?xml version="1.0" encoding="UTF-8"?>
<svg id="_图层_1" data-name=" 图层 1" xmlns="http://www.w3.org/2000/svg" viewBox="0 0 816.78 560">
  <defs>
    <style>
      .cls-1, .cls-2 {
        fill-rule: evenodd;
      }

      .cls-1, .cls-3 {
        fill: #fff;
      }

      .cls-2 {
        fill: #50af95;
      }

      .cls-3 {
        stroke: #d9d9d9;
        stroke-miterlimit: 45.71;
        stroke-width: 11.43px;
      }
    </style>
  </defs>
  <rect class="cls-3" x="5.72" y="5.72" width="805.35" height="548.57" rx="62.86" ry="62.86"/>
  <path class="cls-2" d="M251.47,66.75l-90.28,189.64c-.7,1.44-.38,3.19.79,4.29l243.84,233.66c1.44,1.38,3.71,1.38,5.15,0l243.84-233.64c1.18-1.1,1.5-2.85.79-4.29l-90.28-189.64c-.59-1.3-1.9-2.13-3.32-2.13H254.83c-1.43-.02-2.75.81-3.36,2.11h-.01Z"/>
  <path class="cls-1" d="M439.73,275.87h0c-1.75.13-10.8.67-30.98.67-16.05,0-27.44-.48-31.43-.67h0c-62.01-2.73-108.3-13.52-108.3-26.45s46.29-23.7,108.3-26.47v42.18c4.06.29,15.66.98,31.72.98,19.25,0,28.89-.81,30.64-.97v-42.16c61.89,2.76,108.07,13.55,108.07,26.45s-46.17,23.69-108.07,26.43h.05ZM439.73,218.62v-37.74h86.36v-57.55h-235.13v57.55h86.34v37.73c-70.18,3.23-122.97,17.13-122.97,33.79s52.78,30.55,122.97,33.79v120.94h62.41v-120.98c70.02-3.23,122.71-17.11,122.71-33.76s-52.65-30.53-122.71-33.77h.02ZM439.73,218.62h0Z"/>
</svg>