<?xml version="1.0" encoding="UTF-8"?>
<svg id="_图层_1" data-name=" 图层 1" xmlns="http://www.w3.org/2000/svg" viewBox="0 0 891.72 560">
  <defs>
    <style>
      .cls-1 {
        fill: #fff;
      }

      .cls-2 {
        fill: #0e4595;
      }
    </style>
  </defs>
  <g id="Page-1">
    <g id="visa">
      <rect id="Rectangle-1" class="cls-2" width="891.72" height="560" rx="40" ry="40"/>
      <polygon id="Shape" class="cls-1" points="330.77 397.39 370.43 164.64 433.88 164.64 394.18 397.39 330.77 397.39"/>
      <path id="path13" class="cls-1" d="M623.38,169.65c-12.57-4.72-32.27-9.77-56.86-9.77-62.68,0-106.84,31.57-107.22,76.81-.36,33.45,31.52,52.1,55.58,63.23,24.69,11.4,32.99,18.69,32.87,28.87-.15,15.6-19.72,22.73-37.95,22.73-25.4,0-38.88-3.53-59.72-12.22l-8.18-3.7-8.91,52.1c14.81,6.49,42.22,12.13,70.67,12.41,66.69,0,109.98-31.21,110.47-79.52.24-26.48-16.66-46.63-53.27-63.24-22.17-10.77-35.75-17.95-35.61-28.86,0-9.68,11.5-20.02,36.33-20.02,20.75-.32,35.78,4.2,47.49,8.92l5.68,2.69,8.6-50.45"/>
      <path id="Path" class="cls-1" d="M786.63,164.64h-49.02c-15.18,0-26.55,4.15-33.22,19.3l-94.21,213.3h66.62s10.89-28.68,13.35-34.98c7.28,0,71.99.1,81.25.1,1.9,8.14,7.72,34.87,7.72,34.87h58.87l-51.35-232.61v.02ZM708.86,314.92c5.24-13.41,25.28-65.06,25.28-65.06-.38.62,5.21-13.47,8.42-22.21l4.29,20.07s12.15,55.56,14.68,67.21h-52.67Z"/>
      <path id="path16" class="cls-1" d="M54.55,164.62l-.81,4.84c25.08,6.08,47.48,14.85,67.08,25.79l56.3,201.75,67.13-.08,99.87-232.3h-67.2l-62.11,158.73-6.62-32.26c-.31-.99-.64-1.97-.97-2.96l-21.6-103.86c-3.84-14.74-14.98-19.14-28.76-19.65H54.55h0Z"/>
    </g>
  </g>
</svg>